<svg xmlns="http://www.w3.org/2000/svg" viewBox="0 0 36.29 36.29"><defs><style>.cls-1{fill:#666;}</style></defs><g id="Camada_2" data-name="Camada 2"><g id="Camada_1-2" data-name="Camada 1"><path class="cls-1" d="M18.81,0a1,1,0,0,0-1,1v5a1,1,0,0,0,2,0V1A1,1,0,0,0,18.81,0Zm8.33,1.65a1,1,0,0,0-.94.53l-1.65,3.3A1,1,0,0,0,25,6.83a1.12,1.12,0,0,0,.43.1,1,1,0,0,0,.89-.56L28,3.07a1,1,0,0,0-.43-1.32A1,1,0,0,0,27.14,1.65Zm-16.65,0a1.15,1.15,0,0,0-.39.11A1,1,0,0,0,9.68,3.1l1.65,3.3a1,1,0,0,0,.89.53,1,1,0,0,0,.42-.1.94.94,0,0,0,.43-1.32l-1.65-3.3A.94.94,0,0,0,10.49,1.67ZM1,11.22a1,1,0,0,0-.86.46,1,1,0,0,0,0,1L3.31,19V35.3a1,1,0,0,0,1,1H32a1,1,0,0,0,1-1V19l3.2-6.4a1.12,1.12,0,0,0,0-1,1,1,0,0,0-.86-.46h-9.9a1,1,0,0,0-.89.56L24,12.87H20.27l-.57-1.09a1,1,0,0,0-.89-.56Zm1.62,2h15.6l2.31,4.61H4.92ZM26,13.2h7.69l-2.35,4.61H23.73ZM5.29,19.79H21.12V34.31H5.29Zm17.81,0H31V34.31H23.1ZM6.94,30v2.64h6.6V30Z"/></g></g></svg>