<svg xmlns="http://www.w3.org/2000/svg" viewBox="0 0 32.98 32.98"><defs><style>.cls-1{fill:#666;}</style></defs><g id="Camada_2" data-name="Camada 2"><g id="Camada_1-2" data-name="Camada 1"><path class="cls-1" d="M16.49,0A16.49,16.49,0,1,0,33,16.49,16.5,16.5,0,0,0,16.49,0ZM29.61,9a14.78,14.78,0,0,1,2,6.76H23.14a43.52,43.52,0,0,0-.32-4.41,3.13,3.13,0,0,0,1.93-2.24h4.44A.82.82,0,0,0,29.61,9ZM12,24.26a32.07,32.07,0,0,1-.67-4.73,3.27,3.27,0,0,0,2.28-2.34h8.12c0,1.54-.14,3-.32,4.44a3.14,3.14,0,0,0-2.83,2.63ZM8.75,16.49a1.62,1.62,0,0,1,.14-.7,1.73,1.73,0,0,1,.95-.91,2,2,0,0,1,.66-.14,2,2,0,0,1,.74.17,1.72,1.72,0,0,1,.87.91,1.51,1.51,0,0,1,.14.7,2.23,2.23,0,0,1-.14.7,2,2,0,0,1-.87.91,2.28,2.28,0,0,1-.7.11,1.49,1.49,0,0,1-.67-.14,1.71,1.71,0,0,1-.94-.91A1.55,1.55,0,0,1,8.75,16.49Zm14.7,8.29a1.55,1.55,0,0,1-.24.88,1.74,1.74,0,0,1-1.4.87H21.7a1.81,1.81,0,0,1-1.19-.45,1.14,1.14,0,0,1-.31-.39,1.94,1.94,0,0,1-.25-.87,3.21,3.21,0,0,1,.07-.53,1.86,1.86,0,0,1,1.19-1.19A2.89,2.89,0,0,1,21.7,23a1.49,1.49,0,0,1,.88.25,1.8,1.8,0,0,1,.8,1A1.87,1.87,0,0,1,23.45,24.78Zm-9.83-9a3.06,3.06,0,0,0-2.28-2.35,32.29,32.29,0,0,1,.6-4.27h6.68a3.17,3.17,0,0,0,2.84,2.45,33,33,0,0,1,.28,4.2H13.62ZM20,8.44a1.62,1.62,0,0,1,.14-.7,1.68,1.68,0,0,1,.49-.63,1.66,1.66,0,0,1,1.12-.42h.18a1.79,1.79,0,0,1,1.43,1,1.49,1.49,0,0,1,.14.7,1.51,1.51,0,0,1-.14.7,1.91,1.91,0,0,1-.7.8,1.68,1.68,0,0,1-.91.28,1.57,1.57,0,0,1-.45-.07,1.71,1.71,0,0,1-1.16-1A1.89,1.89,0,0,1,20,8.44Zm8.82-.7h-4A3.15,3.15,0,0,0,21.7,5.29h-.28a12.47,12.47,0,0,0-2-3.61A15.08,15.08,0,0,1,28.77,7.74ZM16.49,1.4c1.26,0,2.55,1.54,3.57,4.17,0,.07,0,.1.07.14a3.18,3.18,0,0,0-1.51,2H12.25A17.27,17.27,0,0,1,13,5.57C13.93,2.91,15.23,1.4,16.49,1.4Zm-3,.28a16,16,0,0,0-2.69,6.06H4.2A15.19,15.19,0,0,1,13.51,1.68ZM3.36,9a.74.74,0,0,0,.39.11h6.72a35.5,35.5,0,0,0-.56,4.23,3.2,3.2,0,0,0-2.49,2.42h-6A15.68,15.68,0,0,1,3.36,9Zm.21,15.26a15.36,15.36,0,0,1-2.17-7.1h6A3.19,3.19,0,0,0,9.91,19.6a35,35,0,0,0,.63,4.66H3.75A.45.45,0,0,0,3.57,24.29Zm.95,1.37h6.4a15.44,15.44,0,0,0,2.59,5.64A15.19,15.19,0,0,1,4.52,25.66Zm12,5.92c-1.26,0-2.59-1.54-3.57-4.17-.21-.56-.39-1.12-.56-1.75h6.3A3,3,0,0,0,20,27.44C19,30.07,17.75,31.58,16.49,31.58Zm3-.28a12,12,0,0,0,1.85-3.37c.11,0,.25,0,.35,0a3.11,3.11,0,0,0,3-2.28h3.75A15.34,15.34,0,0,1,19.5,31.3Zm9.9-7c-.07,0-.1,0-.17,0H24.82a3.19,3.19,0,0,0-2-2.45,37.67,37.67,0,0,0,.35-4.62h8.41A15.25,15.25,0,0,1,29.4,24.29Z"/></g></g></svg>