<svg xmlns="http://www.w3.org/2000/svg" viewBox="0 0 34.04 34.04"><defs><style>.cls-1{fill:#666;}</style></defs><g id="Camada_2" data-name="Camada 2"><g id="Camada_1-2" data-name="Camada 1"><path class="cls-1" d="M7.2,17A9.82,9.82,0,1,0,17,7.2,9.83,9.83,0,0,0,7.2,17ZM17,10.13A6.89,6.89,0,1,1,10.13,17,6.9,6.9,0,0,1,17,10.13Z"/><path class="cls-1" d="M18.48,3.65V1.47a1.47,1.47,0,1,0-2.93,0V3.65a1.47,1.47,0,0,0,2.93,0Z"/><path class="cls-1" d="M15.55,30.39v2.18a1.47,1.47,0,1,0,2.93,0V30.39a1.47,1.47,0,1,0-2.93,0Z"/><path class="cls-1" d="M32.57,18.49a1.47,1.47,0,0,0,0-2.94H30.39a1.47,1.47,0,0,0,0,2.94Z"/><path class="cls-1" d="M1.47,15.55a1.47,1.47,0,1,0,0,2.94H3.65a1.47,1.47,0,0,0,0-2.94Z"/><path class="cls-1" d="M27,5,25.44,6.53a1.45,1.45,0,0,0,0,2.07,1.43,1.43,0,0,0,1,.43,1.45,1.45,0,0,0,1-.43l1.54-1.54A1.47,1.47,0,0,0,27,5Z"/><path class="cls-1" d="M6.52,25.44,5,27a1.47,1.47,0,0,0,2.08,2.07L8.6,27.51a1.47,1.47,0,0,0-2.08-2.07Z"/><path class="cls-1" d="M27.51,25.44a1.46,1.46,0,0,0-2.07,2.07L27,29.05A1.46,1.46,0,0,0,29.05,27Z"/><path class="cls-1" d="M7.06,5A1.47,1.47,0,0,0,5,7.06L6.53,8.6a1.43,1.43,0,0,0,1,.43,1.47,1.47,0,0,0,1-2.5Z"/></g></g></svg>