<svg xmlns="http://www.w3.org/2000/svg" viewBox="0 0 34.16 26.89"><defs><style>.cls-1{fill:#666;}</style></defs><g id="Camada_2" data-name="Camada 2"><g id="Camada_1-2" data-name="Camada 1"><path class="cls-1" d="M32.82,17.2a1.34,1.34,0,0,0,1.34-1.33V5a5,5,0,0,0-5-5H5A5,5,0,0,0,0,5v17a5,5,0,0,0,5,5H29.19a5,5,0,0,0,5-5V20.71a1.34,1.34,0,0,0-2.67,0v1.21a2.28,2.28,0,0,1-2.3,2.3H5a2.28,2.28,0,0,1-2.3-2.3V5a2.24,2.24,0,0,1,.08-.57l11,10.27a5,5,0,0,0,6.76,0l11-10.27a2.24,2.24,0,0,1,.08.57v10.9A1.34,1.34,0,0,0,32.82,17.2Z"/></g></g></svg>