<svg xmlns="http://www.w3.org/2000/svg" viewBox="0 0 264.76 33.42"><defs><style>.cls-1{fill:#ebf4f5;}.cls-2{fill:#666;}</style></defs><g id="Camada_2" data-name="Camada 2"><g id="Camada_1-2" data-name="Camada 1"><path class="cls-1" d="M23.85,0H9.69V9.72h14v14h9.72V9.57A9.58,9.58,0,0,0,23.85,0Z"/><path class="cls-1" d="M9.72,23.7v-14H0V23.85a9.58,9.58,0,0,0,9.57,9.57H23.73V23.7Z"/><path class="cls-2" d="M260.94,21a1.2,1.2,0,0,0-1.32-1.21h-1.46v3.84h.61V22.18h.71l1,1.41h.74l-1.11-1.5A1.15,1.15,0,0,0,260.94,21Zm-1.33.64h-.84V20.33h.84c.45,0,.7.23.7.64S260.06,21.6,259.61,21.6Z"/><path class="cls-2" d="M259.5,16.43a5.25,5.25,0,1,0,5.26,5.24A5.26,5.26,0,0,0,259.5,16.43Zm0,9.72A4.48,4.48,0,1,1,264,21.67,4.39,4.39,0,0,1,259.5,26.15Z"/><path class="cls-2" d="M149.35,25.46a3.58,3.58,0,0,1-.84-.1,1.74,1.74,0,0,1-.64-.31,1.48,1.48,0,0,1-.42-.6,2.54,2.54,0,0,1-.15-.94V18h3V16.51h-3V13.73h-1.55v2.78H144.1V18h1.65v5.67a3.1,3.1,0,0,0,.93,2.51,3.48,3.48,0,0,0,2.37.79,5.44,5.44,0,0,0,.84-.06c.25-.05.51-.1.76-.17V25.33l-.69.09C149.75,25.44,149.55,25.46,149.35,25.46Z"/><path class="cls-2" d="M159.76,17.4a3.17,3.17,0,0,0-1.14-.83,3.9,3.9,0,0,0-1.53-.29,3.71,3.71,0,0,0-1.71.37,3.28,3.28,0,0,0-1.23,1V12.31h-1.54V26.69h1.54V20.5a3.34,3.34,0,0,1,.19-1.1,2.43,2.43,0,0,1,.54-.86,2.37,2.37,0,0,1,.81-.57,2.5,2.5,0,0,1,1-.21,2.21,2.21,0,0,1,1.79.77,2.94,2.94,0,0,1,.64,2v6.19h1.55v-6.4a5.29,5.29,0,0,0-.24-1.62A3.56,3.56,0,0,0,159.76,17.4Z"/><rect class="cls-2" x="163.67" y="16.51" width="1.55" height="10.18"/><path class="cls-2" d="M172.05,20.92l-.91-.4a4.84,4.84,0,0,1-1.2-.66,1,1,0,0,1-.38-.82,1.06,1.06,0,0,1,.47-.95,2,2,0,0,1,1.17-.33,2.87,2.87,0,0,1,1.31.31,3.33,3.33,0,0,1,1.08.82l.95-1a4.45,4.45,0,0,0-1.39-1.17,3.88,3.88,0,0,0-1.89-.44,4,4,0,0,0-1.26.19,3.12,3.12,0,0,0-1.06.54,2.48,2.48,0,0,0-.71.89,2.8,2.8,0,0,0-.26,1.22,2.57,2.57,0,0,0,.17,1,2.47,2.47,0,0,0,.49.76,3.56,3.56,0,0,0,.77.59,10.36,10.36,0,0,0,1,.51l1,.42a7.55,7.55,0,0,1,1.22.65,1.1,1.1,0,0,1,.49,1,1.21,1.21,0,0,1-.55,1.07,2.3,2.3,0,0,1-1.32.37,2.7,2.7,0,0,1-1.56-.45,6.15,6.15,0,0,1-1.25-1.11l-1,1.06a5.29,5.29,0,0,0,1.56,1.4,4.59,4.59,0,0,0,3.56.4,3.46,3.46,0,0,0,1.1-.56,2.67,2.67,0,0,0,1-2.24,2.47,2.47,0,0,0-.64-1.76A6.38,6.38,0,0,0,172.05,20.92Z"/><rect class="cls-2" x="180.89" y="16.51" width="1.55" height="10.18"/><rect class="cls-2" x="180.89" y="12.82" width="1.55" height="1.55"/><rect class="cls-2" x="231.11" y="12.82" width="1.55" height="1.55"/><rect class="cls-2" x="163.67" y="12.82" width="1.55" height="1.55"/><path class="cls-2" d="M189.27,20.92l-.91-.4a4.84,4.84,0,0,1-1.2-.66,1,1,0,0,1-.38-.82,1.06,1.06,0,0,1,.47-.95,2,2,0,0,1,1.17-.33,2.87,2.87,0,0,1,1.31.31,3.44,3.44,0,0,1,1.08.82l.95-1a4.45,4.45,0,0,0-1.39-1.17,3.88,3.88,0,0,0-1.89-.44,4,4,0,0,0-1.26.19,3.12,3.12,0,0,0-1.06.54,2.48,2.48,0,0,0-.71.89,2.8,2.8,0,0,0-.26,1.22,2.57,2.57,0,0,0,.17,1,2.47,2.47,0,0,0,.49.76,3.56,3.56,0,0,0,.77.59,10.36,10.36,0,0,0,1,.51l1,.42a7.55,7.55,0,0,1,1.22.65,1.1,1.1,0,0,1,.49,1,1.21,1.21,0,0,1-.55,1.07,2.3,2.3,0,0,1-1.32.37,2.7,2.7,0,0,1-1.56-.45,6.15,6.15,0,0,1-1.25-1.11l-1,1.06a5.29,5.29,0,0,0,1.56,1.4,4.59,4.59,0,0,0,3.56.4,3.46,3.46,0,0,0,1.1-.56,2.67,2.67,0,0,0,1-2.24,2.43,2.43,0,0,0-.65-1.76A6.19,6.19,0,0,0,189.27,20.92Z"/><path class="cls-2" d="M202.61,16.43a3.82,3.82,0,0,0-1.7.39A3.65,3.65,0,0,0,199.56,18V16.51h-1.45V26.69h1.55V20.92a3.06,3.06,0,0,1,.26-1.29,3.22,3.22,0,0,1,.69-.93,3,3,0,0,1,1-.57,3.43,3.43,0,0,1,1.15-.2h.57V16.51a1.55,1.55,0,0,0-.31-.06A2.3,2.3,0,0,0,202.61,16.43Z"/><path class="cls-2" d="M212.42,17.55a4.35,4.35,0,0,0-1.42-.94,4.55,4.55,0,0,0-1.73-.33,4.61,4.61,0,0,0-2,.42,5.27,5.27,0,0,0-1.59,1.14,5.15,5.15,0,0,0-1.06,1.69,5.7,5.7,0,0,0,0,4.17,5.27,5.27,0,0,0,1.08,1.68,5,5,0,0,0,1.64,1.13,5.14,5.14,0,0,0,2.05.41,5,5,0,0,0,2.2-.48,5.47,5.47,0,0,0,1.71-1.3l-.9-1.09a4.93,4.93,0,0,1-1.33,1,3.53,3.53,0,0,1-1.66.37,3.72,3.72,0,0,1-1.35-.23,3.19,3.19,0,0,1-1.09-.66,3.57,3.57,0,0,1-.77-1.06,4.24,4.24,0,0,1-.37-1.39h7.72c0-.1,0-.25.08-.47s0-.46,0-.74a4.9,4.9,0,0,0-.35-1.87A4.27,4.27,0,0,0,212.42,17.55Zm-6.49,3.12a4.19,4.19,0,0,1,.41-1.19,3.54,3.54,0,0,1,.73-.93,3,3,0,0,1,1-.6,3.29,3.29,0,0,1,1.18-.21,3.39,3.39,0,0,1,1.1.19,2.46,2.46,0,0,1,.91.57,2.72,2.72,0,0,1,.64.91,3.15,3.15,0,0,1,.24,1.26Z"/><path class="cls-2" d="M222.43,17.32a3.41,3.41,0,0,0-1.21-.78,4.54,4.54,0,0,0-1.55-.26,4.91,4.91,0,0,0-2.23.53,4.41,4.41,0,0,0-1.75,1.71l1.05.87a5,5,0,0,1,1.25-1.2,2.94,2.94,0,0,1,1.58-.43,2.4,2.4,0,0,1,1.75.64,2.61,2.61,0,0,1,.64,1.93v.88h-3.09a3.94,3.94,0,0,0-2.57.78,2.52,2.52,0,0,0-1,2.06,2.79,2.79,0,0,0,.25,1.21,2.54,2.54,0,0,0,.7.89,3.23,3.23,0,0,0,1.09.57,4.65,4.65,0,0,0,1.38.2,4.29,4.29,0,0,0,1.91-.4A3.41,3.41,0,0,0,222,25.39v1.3h1.47V20.42a5.49,5.49,0,0,0-.28-1.8A3.71,3.71,0,0,0,222.43,17.32ZM222,22.78a2.62,2.62,0,0,1-.24,1.12,2.88,2.88,0,0,1-.65.89,3.05,3.05,0,0,1-1,.58,3.21,3.21,0,0,1-1.15.21,2.46,2.46,0,0,1-1.41-.4,1.35,1.35,0,0,1-.6-1.21c0-1,.69-1.44,2.09-1.44H222Z"/><rect class="cls-2" x="226.5" y="12.31" width="1.55" height="14.38"/><rect class="cls-2" x="231.11" y="16.51" width="1.55" height="10.18"/><path class="cls-2" d="M239.77,25.46a3.43,3.43,0,0,1-.83-.1,1.71,1.71,0,0,1-.65-.31,1.48,1.48,0,0,1-.42-.6,2.54,2.54,0,0,1-.15-.94V18h3.05V16.51h-3.05V13.73h-1.55v2.78h-1.64V18h1.64v5.67a3.1,3.1,0,0,0,.93,2.51,3.48,3.48,0,0,0,2.37.79,5.35,5.35,0,0,0,.84-.06c.26-.05.51-.1.76-.17V25.33l-.69.09C240.17,25.44,240,25.46,239.77,25.46Z"/><path class="cls-2" d="M247.17,24.62,244,16.51h-1.67l4.06,9.84-.53,1.24a2.5,2.5,0,0,1-.95,1.3,2.42,2.42,0,0,1-1.26.33l-.55,0-.63-.08v1.36a5.21,5.21,0,0,0,.73.16,6.59,6.59,0,0,0,.75.05,3.11,3.11,0,0,0,1.94-.6,4.63,4.63,0,0,0,1.38-2l4.82-11.6H250.4Z"/><polygon class="cls-1" points="57.5 8.27 41.91 8.27 41.91 11.65 47.88 11.65 47.88 27.43 51.5 27.43 51.5 11.65 57.5 11.65 57.5 8.27"/><path class="cls-1" d="M64,12.79h-.15a7.26,7.26,0,0,0-5.07,2.14,7.37,7.37,0,0,0-2.18,5.33,7.46,7.46,0,0,0,2.19,5.37,7.12,7.12,0,0,0,5,2.13H64a7.24,7.24,0,0,0,5.27-2.17,7.38,7.38,0,0,0,2.19-5.32A7.19,7.19,0,0,0,69.27,15,7.32,7.32,0,0,0,64,12.79Zm0,11.53a3.76,3.76,0,0,1-3.72-4A3.79,3.79,0,0,1,64,16.2a3.84,3.84,0,0,1,3.73,4.09A3.81,3.81,0,0,1,64,24.32Z"/><path class="cls-1" d="M78.45,22.08V16.26h4V13.11h-4V9.45H74.83v3.66H72.62v3.15h2.21v6.17c0,3.5,1.9,5.35,5.51,5.35a10.35,10.35,0,0,0,2.53-.33V24.33c-.91.08-1.48.11-1.71.11C79.26,24.44,78.45,23.73,78.45,22.08Z"/><path class="cls-1" d="M91.29,12.79a7.47,7.47,0,0,0-6,2.89L87.16,18A4.77,4.77,0,0,1,90.87,16a2.44,2.44,0,0,1,2.7,2.65v.75H90c-3.21,0-5.2,1.58-5.2,4.12s1.91,4.24,4.75,4.24a5.69,5.69,0,0,0,4.2-1.72l.17-.19v1.56h3.31V18.91C97.19,15.08,95,12.79,91.29,12.79Zm2.28,9.32a2.94,2.94,0,0,1-3,3c-1.29,0-2.12-.66-2.12-1.68s.73-1.57,2.06-1.57h3.1Z"/><rect class="cls-1" x="100.85" y="5.63" width="3.62" height="21.8"/><path class="cls-1" d="M115.71,15.37l-.13,0,4.19-6.13V8.27H107.94v3.38h6.32l-4,5.79v.9h2.25c2.53,0,3.93,1,3.93,2.89a3.06,3.06,0,0,1-3.36,3.09c-1.63,0-2.84-.79-4-2.63l-2.51,1.83a7.25,7.25,0,0,0,6.67,4.26,6.63,6.63,0,0,0,7-6.58,5.62,5.62,0,0,0-1.28-3.78A6.24,6.24,0,0,0,115.71,15.37Z"/><path class="cls-1" d="M136.92,11.12a10.23,10.23,0,0,0-7.38-2.85H123.4V27.43h6a10.12,10.12,0,0,0,7.42-2.84,9.37,9.37,0,0,0,2.68-6.79A9.05,9.05,0,0,0,136.92,11.12Zm-7.54,12.94H127V11.65h2.36c3.94,0,6.39,2.35,6.39,6.14A6,6,0,0,1,129.38,24.06Z"/></g></g></svg>