<svg xmlns="http://www.w3.org/2000/svg" xmlns:xlink="http://www.w3.org/1999/xlink" viewBox="0 0 121.97 121.88"><defs><style>.cls-1{fill:url(#Gradiente_sem_nome_4);}</style><linearGradient id="Gradiente_sem_nome_4" x1="160.4" y1="254.47" x2="7.21" y2="-43.74" gradientUnits="userSpaceOnUse"><stop offset="0" stop-color="#f7eefc"/><stop offset="1" stop-color="#830ad1"/></linearGradient></defs><g id="Camada_2" data-name="Camada 2"><g id="Camada_1-2" data-name="Camada 1"><path class="cls-1" d="M115.12,0H6.85A6.85,6.85,0,0,0,0,6.85V115a6.85,6.85,0,0,0,6.85,6.85H115.12A6.85,6.85,0,0,0,122,115V6.85A6.85,6.85,0,0,0,115.12,0Z"/><path d="M72.66,33.63H49.51V49.52h22.9v22.9H88.29V49.27A15.65,15.65,0,0,0,72.66,33.63Z"/><path d="M49.56,72.36V49.45H33.68V72.61A15.65,15.65,0,0,0,49.31,88.25H72.46V72.36Z"/></g></g></svg>